<?xml version="1.0" encoding="UTF-8"?><svg id="Layer_2" xmlns="http://www.w3.org/2000/svg" viewBox="0 0 303.62 124.41"><defs><style>.cls-1{fill:#6d6e71;}.cls-2{fill:#075090;}</style></defs><g id="Layer_1-2"><path class="cls-2" d="m5.6,21.48c3.74-6.77,8.95-12.04,15.63-15.82C27.92,1.89,35.49,0,43.96,0c10.38,0,19.26,2.74,26.65,8.22,7.39,5.48,12.33,12.95,14.82,22.42h-23.41c-1.74-3.65-4.21-6.43-7.41-8.34-3.2-1.91-6.83-2.86-10.9-2.86-6.56,0-11.87,2.28-15.94,6.85-4.07,4.57-6.1,10.67-6.1,18.31s2.03,13.74,6.1,18.31c4.07,4.57,9.38,6.85,15.94,6.85,4.07,0,7.7-.95,10.9-2.86,3.2-1.91,5.67-4.69,7.41-8.34h23.41c-2.49,9.46-7.43,16.92-14.82,22.35-7.39,5.44-16.27,8.16-26.65,8.16-8.47,0-16.05-1.89-22.73-5.67-6.68-3.78-11.89-9.03-15.63-15.75C1.87,60.9,0,53.22,0,44.58s1.87-16.33,5.6-23.1Z"/><path class="cls-2" d="m155.55,88.42l-18.18-33h-5.11v33h-21.3V1h35.74c6.89,0,12.77,1.2,17.62,3.61,4.86,2.41,8.49,5.71,10.9,9.9,2.41,4.19,3.61,8.86,3.61,14.01,0,5.81-1.64,11-4.92,15.57-3.28,4.57-8.12,7.8-14.51,9.71l20.17,34.62h-24.04Zm-23.29-48.07h13.2c3.9,0,6.83-.95,8.78-2.86,1.95-1.91,2.93-4.61,2.93-8.1s-.98-5.94-2.93-7.85c-1.95-1.91-4.88-2.86-8.78-2.86h-13.2v21.67Z"/><path class="cls-2" d="m303.62,1v87.43h-21.3v-52.43l-19.55,52.43h-17.19l-19.68-52.56v52.56h-21.3V1h25.16l24.53,60.53L278.59,1h25.03Z"/><path class="cls-1" d="m20.44,105.16v3.7h-5.02v15.25h-4.62v-15.25h-5.02v-3.7h14.66Z"/><path class="cls-1" d="m41.88,105.16v18.95h-4.62v-7.8h-7.18v7.8h-4.62v-18.95h4.62v7.43h7.18v-7.43h4.62Z"/><path class="cls-1" d="m69.37,105.16v18.95h-4.62v-11.37l-4.24,11.37h-3.73l-4.27-11.39v11.39h-4.62v-18.95h5.45l5.32,13.12,5.27-13.12h5.43Z"/><path class="cls-1" d="m98.31,124.11l-1.75-1.7c-1.75,1.33-3.83,2-6.26,2-1.46,0-2.73-.24-3.81-.72-1.08-.48-1.91-1.15-2.5-2.02-.59-.87-.88-1.89-.88-3.06s.32-2.26.96-3.23c.64-.96,1.6-1.75,2.88-2.36-.47-.58-.8-1.13-1-1.66-.2-.53-.3-1.11-.3-1.74,0-.9.23-1.72.7-2.46.47-.74,1.15-1.32,2.04-1.74s1.95-.63,3.17-.63,2.29.23,3.16.67c.86.45,1.51,1.05,1.94,1.81.43.76.63,1.58.59,2.48h-4.35c.02-.49-.1-.86-.36-1.12-.26-.26-.61-.39-1.04-.39s-.79.13-1.08.38c-.29.25-.43.58-.43.97s.12.77.36,1.19c.24.41.62.89,1.15,1.43l4.62,4.51c.04-.09.09-.2.15-.32s.13-.27.2-.43l1-1.7h4.62l-1.3,2.35c-.49,1.06-1.04,2.07-1.67,3.02l4.56,4.48h-5.37Zm-4.59-4.46l-4.21-4.08c-1.3.67-1.94,1.57-1.94,2.7,0,.68.27,1.26.8,1.71.53.46,1.25.69,2.15.69,1.21,0,2.28-.34,3.21-1.03Z"/><path class="cls-1" d="m133.44,124.11h-4.62l-7.72-11.69v11.69h-4.62v-18.95h4.62l7.72,11.75v-11.75h4.62v18.95Z"/><path class="cls-1" d="m142.36,123.38c-1.18-.63-2.11-1.53-2.78-2.7-.68-1.17-1.01-2.54-1.01-4.1s.34-2.91,1.03-4.09c.68-1.18,1.62-2.08,2.81-2.71,1.19-.63,2.52-.95,4-.95s2.81.32,4,.95c1.19.63,2.12,1.54,2.81,2.71.68,1.18,1.03,2.54,1.03,4.09s-.35,2.91-1.04,4.09-1.64,2.08-2.83,2.71c-1.2.63-2.53.94-4.01.94s-2.8-.31-3.98-.94Zm6.24-4.02c.62-.65.93-1.57.93-2.78s-.3-2.13-.9-2.78c-.6-.65-1.35-.97-2.23-.97s-1.65.32-2.24.96c-.59.64-.89,1.57-.89,2.79s.29,2.13.88,2.78c.58.65,1.32.97,2.2.97s1.63-.32,2.25-.97Z"/><path class="cls-1" d="m181.01,109.04l-4.08,15.07h-5.1l-2.38-9.77-2.46,9.77h-5.08l-4.1-15.07h4.62l2.13,10.77,2.54-10.77h4.89l2.56,10.72,2.11-10.72h4.35Z"/><path class="cls-1" d="m215.36,105.16v18.95h-4.62v-11.37l-4.24,11.37h-3.73l-4.27-11.39v11.39h-4.62v-18.95h5.45l5.32,13.12,5.26-13.12h5.43Z"/><path class="cls-1" d="m224.25,123.38c-1.18-.63-2.11-1.53-2.78-2.7s-1.01-2.54-1.01-4.1.34-2.91,1.03-4.09c.68-1.18,1.62-2.08,2.81-2.71,1.19-.63,2.52-.95,4-.95s2.81.32,4,.95c1.19.63,2.12,1.54,2.81,2.71.68,1.18,1.03,2.54,1.03,4.09s-.35,2.91-1.04,4.09c-.69,1.18-1.64,2.08-2.84,2.71s-2.53.94-4.01.94-2.8-.31-3.98-.94Zm6.24-4.02c.62-.65.93-1.57.93-2.78s-.3-2.13-.9-2.78c-.6-.65-1.35-.97-2.23-.97s-1.65.32-2.24.96c-.59.64-.89,1.57-.89,2.79s.29,2.13.88,2.78,1.32.97,2.2.97,1.63-.32,2.25-.97Z"/><path class="cls-1" d="m247.76,109.48c.81-.43,1.74-.65,2.78-.65,1.24,0,2.37.32,3.38.95,1.01.63,1.8,1.53,2.39,2.7s.88,2.53.88,4.08-.29,2.91-.88,4.09c-.58,1.18-1.38,2.09-2.39,2.73s-2.13.96-3.38.96c-1.06,0-1.99-.21-2.78-.63-.79-.42-1.41-.99-1.86-1.69v2.11h-4.62v-19.98h4.62v7.05c.43-.7,1.05-1.27,1.86-1.7Zm3.77,4.36c-.64-.66-1.43-.99-2.36-.99s-1.7.33-2.33,1c-.64.67-.96,1.58-.96,2.73s.32,2.06.96,2.73c.64.67,1.42,1,2.33,1s1.7-.34,2.35-1.01c.65-.67.97-1.59.97-2.74s-.32-2.06-.96-2.71Z"/><path class="cls-1" d="m262.65,106.76c-.51-.48-.77-1.07-.77-1.77s.26-1.32.77-1.79c.51-.48,1.17-.72,1.98-.72s1.44.24,1.96.72c.51.48.77,1.08.77,1.79s-.26,1.29-.77,1.77c-.51.48-1.17.72-1.96.72s-1.47-.24-1.98-.72Zm4.28,2.28v15.07h-4.62v-15.07h4.62Z"/><path class="cls-1" d="m277.59,104.13v19.98h-4.62v-19.98h4.62Z"/><path class="cls-1" d="m297.76,117.68h-10.45c.07.94.37,1.65.91,2.15.53.5,1.18.74,1.96.74,1.15,0,1.95-.49,2.4-1.46h4.91c-.25.99-.71,1.88-1.36,2.67-.66.79-1.48,1.41-2.47,1.86-.99.45-2.1.67-3.32.67-1.48,0-2.79-.31-3.94-.94s-2.05-1.53-2.7-2.7c-.65-1.17-.97-2.54-.97-4.1s.32-2.93.96-4.1c.64-1.17,1.53-2.07,2.69-2.7,1.15-.63,2.47-.95,3.97-.95s2.75.31,3.89.92c1.13.61,2.02,1.48,2.66,2.62.64,1.13.96,2.46.96,3.97,0,.43-.03.88-.08,1.35Zm-4.64-2.57c0-.79-.27-1.42-.81-1.89-.54-.47-1.21-.7-2.02-.7s-1.43.23-1.96.67c-.53.45-.86,1.09-.99,1.92h5.78Z"/></g></svg>